<svg width="76" height="24" viewBox="0 0 76 24" fill="none" xmlns="http://www.w3.org/2000/svg">
<path fill-rule="evenodd" clip-rule="evenodd" d="M0 12.067C0 18.033 4.333 22.994 10 24V15.333H7V12H10V9.333C10 6.333 11.933 4.667 14.667 4.667C15.533 4.667 16.467 4.8 17.333 4.933V8H15.8C14.333 8 14 8.733 14 9.667V12H17.2L16.667 15.333H14V24C19.667 22.994 24 18.034 24 12.067C24 5.43 18.6 0 12 0C5.4 0 0 5.43 0 12.067Z" fill="white"/>
<path fill-rule="evenodd" clip-rule="evenodd" d="M59.0527 0.072C60.3324 0.0130909 60.7404 0 64 0C67.2596 0 67.6676 0.0141818 68.9462 0.072C70.2247 0.129818 71.0975 0.333818 71.8611 0.629455C72.6607 0.931636 73.3862 1.404 73.9862 2.01491C74.5971 2.61382 75.0684 3.33818 75.3695 4.13891C75.6662 4.90255 75.8691 5.77527 75.928 7.05164C75.9869 8.33346 76 8.74146 76 12C76 15.2596 75.9858 15.6676 75.928 16.9473C75.8702 18.2236 75.6662 19.0964 75.3695 19.86C75.0684 20.6608 74.5963 21.3864 73.9862 21.9862C73.3862 22.5971 72.6607 23.0684 71.8611 23.3695C71.0975 23.6662 70.2247 23.8691 68.9484 23.928C67.6676 23.9869 67.2596 24 64 24C60.7404 24 60.3324 23.9858 59.0527 23.928C57.7764 23.8702 56.9036 23.6662 56.14 23.3695C55.3392 23.0683 54.6136 22.5963 54.0138 21.9862C53.4033 21.3869 52.9309 20.6617 52.6295 19.8611C52.3338 19.0975 52.1309 18.2247 52.072 16.9484C52.0131 15.6665 52 15.2585 52 12C52 8.74036 52.0142 8.33236 52.072 7.05382C52.1298 5.77527 52.3338 4.90255 52.6295 4.13891C52.9313 3.33827 53.4041 2.61307 54.0149 2.01382C54.6139 1.40346 55.3387 0.931029 56.1389 0.629455C56.9025 0.333818 57.7753 0.130909 59.0516 0.072H59.0527ZM68.8491 2.232C67.5836 2.17418 67.204 2.16218 64 2.16218C60.796 2.16218 60.4164 2.17418 59.1509 2.232C57.9804 2.28545 57.3455 2.48073 56.9222 2.64545C56.3625 2.86364 55.9622 3.12218 55.5422 3.54218C55.144 3.92951 54.8377 4.40104 54.6455 4.92218C54.4807 5.34545 54.2855 5.98036 54.232 7.15091C54.1742 8.41636 54.1622 8.796 54.1622 12C54.1622 15.204 54.1742 15.5836 54.232 16.8491C54.2855 18.0196 54.4807 18.6545 54.6455 19.0778C54.8375 19.5982 55.144 20.0705 55.5422 20.4578C55.9295 20.856 56.4018 21.1625 56.9222 21.3545C57.3455 21.5193 57.9804 21.7145 59.1509 21.768C60.4164 21.8258 60.7949 21.8378 64 21.8378C67.2051 21.8378 67.5836 21.8258 68.8491 21.768C70.0196 21.7145 70.6545 21.5193 71.0778 21.3545C71.6375 21.1364 72.0378 20.8778 72.4578 20.4578C72.856 20.0705 73.1625 19.5982 73.3545 19.0778C73.5193 18.6545 73.7145 18.0196 73.768 16.8491C73.8258 15.5836 73.8378 15.204 73.8378 12C73.8378 8.796 73.8258 8.41636 73.768 7.15091C73.7145 5.98036 73.5193 5.34545 73.3545 4.92218C73.1364 4.36255 72.8778 3.96218 72.4578 3.54218C72.0705 3.14408 71.5989 2.83768 71.0778 2.64545C70.6545 2.48073 70.0196 2.28545 68.8491 2.232ZM62.4673 15.6993C63.3233 16.0556 64.2764 16.1037 65.1639 15.8353C66.0514 15.567 66.8182 14.9988 67.3334 14.2279C67.8485 13.457 68.0801 12.5311 67.9884 11.6085C67.8968 10.6858 67.4876 9.82361 66.8309 9.16909C66.4123 8.7507 65.906 8.43034 65.3487 8.23107C64.7914 8.0318 64.1968 7.95858 63.6078 8.01667C63.0188 8.07477 62.45 8.26274 61.9423 8.56705C61.4347 8.87136 61.0008 9.28445 60.672 9.77657C60.3431 10.2687 60.1275 10.8276 60.0406 11.413C59.9536 11.9985 59.9976 12.596 60.1693 13.1624C60.341 13.7288 60.6362 14.2501 61.0335 14.6888C61.4309 15.1275 61.9205 15.4726 62.4673 15.6993ZM59.6385 7.63855C60.2113 7.06579 60.8913 6.61146 61.6396 6.30149C62.3879 5.99151 63.19 5.83197 64 5.83197C64.81 5.83197 65.6121 5.99151 66.3604 6.30149C67.1087 6.61146 67.7887 7.06579 68.3615 7.63855C68.9342 8.2113 69.3885 8.89126 69.6985 9.6396C70.0085 10.3879 70.168 11.19 70.168 12C70.168 12.81 70.0085 13.6121 69.6985 14.3604C69.3885 15.1087 68.9342 15.7887 68.3615 16.3615C67.2047 17.5182 65.6359 18.168 64 18.168C62.3641 18.168 60.7953 17.5182 59.6385 16.3615C58.4818 15.2047 57.832 13.6359 57.832 12C57.832 10.3641 58.4818 8.79528 59.6385 7.63855ZM71.536 6.75055C71.6779 6.61666 71.7916 6.45565 71.8701 6.27706C71.9487 6.09847 71.9907 5.90593 71.9935 5.71083C71.9964 5.51574 71.9601 5.32205 71.8867 5.14125C71.8134 4.96044 71.7045 4.79619 71.5665 4.65822C71.4285 4.52026 71.2643 4.41137 71.0835 4.33802C70.9027 4.26467 70.709 4.22834 70.5139 4.23118C70.3188 4.23403 70.1263 4.27599 69.9477 4.35458C69.7691 4.43317 69.6081 4.54679 69.4742 4.68873C69.2138 4.96476 69.0712 5.33141 69.0768 5.71083C69.0823 6.09026 69.2355 6.4526 69.5038 6.72092C69.7721 6.98924 70.1345 7.14243 70.5139 7.14796C70.8933 7.15349 71.26 7.01093 71.536 6.75055Z" fill="white"/>
</svg>
